<?xml version="1.0" ?><!DOCTYPE svg  PUBLIC '-//W3C//DTD SVG 1.1//EN'  'http://www.w3.org/Graphics/SVG/1.1/DTD/svg11.dtd'><svg enable-background="new 0 0 500 500" height="500px" id="Layer_1" version="1.1" viewBox="0 0 500 500" width="500px" xml:space="preserve" xmlns="http://www.w3.org/2000/svg" xmlns:xlink="http://www.w3.org/1999/xlink"><g><path d="M224.573,111.239c0.853,1.548,1.536,3.142,2.073,4.761h78.463l-33.811-61.394   c-9.717-17.645-31.525-24.276-49.171-14.559L26.444,147.815C8.801,157.532,2,179.918,11.717,197.563l107.77,195.684   c9.716,17.645,32.271,23.865,49.914,14.149l6.6-3.635V348.3c-2.76-2.231-5.145-5.019-6.962-8.319   c-6.696-12.16-3.473-27.099,6.962-35.527v-39.49c-2.477,4.097-6.021,7.621-10.516,10.096c-13.644,7.515-30.799,2.544-38.313-11.1   c-7.517-13.646-2.545-30.8,11.099-38.313c13.304-7.327,29.94-2.783,37.729,10.097v-79.827c0-4.595,0.803-8.933,2.254-12.945   c-1.153-1.379-2.195-2.885-3.095-4.519c-7.515-13.646-2.545-30.8,11.099-38.314C199.904,92.625,217.06,97.594,224.573,111.239z    M123.617,199.039c-13.644,7.514-30.799,2.544-38.313-11.1c-7.516-13.646-2.545-30.8,11.099-38.314   c13.646-7.515,30.801-2.545,38.315,11.1C142.233,174.37,137.264,191.523,123.617,199.039z" fill="#333333"/><path d="M457.144,137H233.746C213.602,137,197,152.495,197,172.639v223.397C197,416.18,213.602,433,233.746,433   h223.397C477.284,433,493,416.18,493,396.036V172.639C493,152.495,477.284,137,457.144,137z M258.035,401.487   c-15.576,0-28.205-12.628-28.205-28.206s12.629-28.207,28.205-28.207c15.579,0,28.207,12.628,28.207,28.207   S273.614,401.487,258.035,401.487z M258.035,227.911c-15.576,0-28.205-12.628-28.205-28.206c0-15.578,12.629-28.206,28.205-28.206   c15.579,0,28.207,12.628,28.207,28.206C286.242,215.283,273.614,227.911,258.035,227.911z M432.422,401.487   c-15.576,0-28.205-12.628-28.205-28.206s12.629-28.207,28.205-28.207c15.578,0,28.207,12.628,28.207,28.207   S448,401.487,432.422,401.487z M432.422,227.911c-15.576,0-28.205-12.628-28.205-28.206s12.629-28.206,28.205-28.206   c15.578,0,28.207,12.628,28.207,28.206S448,227.911,432.422,227.911z" fill="#333333"/></g></svg>